<svg id="Слой_1" data-name="Слой 1" xmlns="http://www.w3.org/2000/svg" width="26" height="24" viewBox="0 0 26 24">
  <defs>
    <style>
      .cls-1 {
        fill: #fff;
      }
    </style>
  </defs>
  <title>cart_w_2</title>
  <path id="sxkla" class="cls-1" d="M0,1A1,1,0,0,1,1,0H4.44a1,1,0,0,1,.93.72L9.3,15.16H20l3.56-8.31H11.7a1,1,0,0,1-1-1h0a1,1,0,0,1,1-1H25a1,1,0,0,1,.8.44,1,1,0,0,1,.08.93l-4.4,10.27a1,1,0,0,1-.88.59H8.57a1,1,0,0,1-.92-.72L3.72,2H1A1,1,0,0,1,0,1Zm5.48,20.8a2.2,2.2,0,0,1,2.18-2.22h0a2.22,2.22,0,0,1,0,4.44h0A2.21,2.21,0,0,1,5.48,21.78Zm13.64.15a2.2,2.2,0,0,1,2-2.37h0a2.2,2.2,0,0,1,2.33,2.06,2.24,2.24,0,0,1-2,2.38h-.16a2.2,2.2,0,0,1-2.17-2.07Z" transform="translate(0)"/>
</svg>
